# xmcd
#
# Track frame offsets:
#	182
#	13900
#	29002
#	42165
#	60145
#	74932
#	91457
#	109505
#	125400
#	141880
#	161990
#	180300
#	194312
#	207597
#	218557
#
# Disc length: 3098
#
# Revision: 1
# Processed by: cddbd v1.5.1PL0 Copyright (c) Steve Scherf et al.
# Submitted via: CDex 1.50
# Normalized: r0:TDELIM( - )
#
DISCID=de0c180f
DTITLE=Various Artist - Pick the hits
DYEAR=1900
DGENRE=Country
TTITLE0=Travis Tritt - T-R-O-U-B-L-E
TTITLE1=Zaca Creek - Fly me south
TTITLE2=Tracy Lawrence - Can´t break it to my heart
TTITLE3=Nanci Griffith - Across the great divide
TTITLE4=Hank Williams Jr - Diamond mine
TTITLE5=John Michael Montgomery - Beer and bones
TTITLE6=Little Texas - What might have been
TTITLE7=Billy Burnette - The bigger the love
TTITLE8=Deborah Allen - If you´re not gonna love me
TTITLE9=Dwight Yoakam - A thousand miles from nowhere
TTITLE10=Confederate Railroad - When you leave that way you can never go back
TTITLE11=Kenny Rogers - If i were you (duet with Travis Tritt)
TTITLE12=Randy Travis - An old pair of shoes
TTITLE13=Lucinda Williams - Lines around your eyes
TTITLE14=Dean Dillon - Hot, country and single
EXTD=
EXTT0=
EXTT1=
EXTT2=
EXTT3=
EXTT4=
EXTT5=
EXTT6=
EXTT7=
EXTT8=
EXTT9=
EXTT10=
EXTT11=
EXTT12=
EXTT13=
EXTT14=
PLAYORDER=
